<svg xmlns="http://www.w3.org/2000/svg" viewBox="0 0 64 64">
  <rect width="64" height="64" rx="10" fill="#ffffff"/>
  <g fill="#b7a161">
    <ellipse cx="29.4" cy="8.7" rx="1.2" ry="2.1" transform="rotate(47 29.4 8.7)"/>
    <ellipse cx="36.8" cy="8.7" rx="1.2" ry="2.1" transform="rotate(-47 36.8 8.7)"/>
    <ellipse cx="22.2" cy="14.5" rx="1.4" ry="2.5" transform="rotate(45 22.2 14.5)"/>
    <ellipse cx="44.1" cy="14.5" rx="1.4" ry="2.5" transform="rotate(-45 44.1 14.5)"/>
    <ellipse cx="14.3" cy="23.2" rx="1.3" ry="2.6" transform="rotate(24 14.3 23.2)"/>
    <ellipse cx="51.7" cy="23.2" rx="1.3" ry="2.6" transform="rotate(-24 51.7 23.2)"/>
    <ellipse cx="12" cy="34" rx="1.5" ry="2.8"/>
    <ellipse cx="54" cy="34" rx="1.5" ry="2.8"/>
    <ellipse cx="14.3" cy="44.8" rx="1.3" ry="2.6" transform="rotate(-24 14.3 44.8)"/>
    <ellipse cx="51.7" cy="44.8" rx="1.3" ry="2.6" transform="rotate(24 51.7 44.8)"/>
    <ellipse cx="22.2" cy="53.5" rx="1.4" ry="2.5" transform="rotate(-45 22.2 53.5)"/>
    <ellipse cx="44.1" cy="53.5" rx="1.4" ry="2.5" transform="rotate(45 44.1 53.5)"/>
    <ellipse cx="29.4" cy="59.3" rx="1.2" ry="2.1" transform="rotate(-47 29.4 59.3)"/>
    <ellipse cx="36.8" cy="59.3" rx="1.2" ry="2.1" transform="rotate(47 36.8 59.3)"/>
    <circle cx="33" cy="14.4" r="2"/>
    <circle cx="24.8" cy="25.2" r="2.4"/>
    <circle cx="41.2" cy="25.2" r="2.4"/>
    <circle cx="33" cy="34" r="2.9"/>
    <circle cx="24.8" cy="42.8" r="2.4"/>
    <circle cx="41.2" cy="42.8" r="2.4"/>
    <circle cx="33" cy="53.6" r="2"/>
  </g>
  <g fill="none" stroke="#314767" stroke-linecap="round" stroke-linejoin="round">
    <path stroke-width="2.3" d="M11.5 20.8C19.9 10 34.7 6.4 47.3 13.6"/>
    <path stroke-width="2.3" d="M13.8 43.8C10.4 36 12.4 26.2 19.3 18.4"/>
    <path stroke-width="2.3" d="M24.2 56.2C37.3 58.4 50.8 49.2 55.2 36.3"/>
    <path stroke-width="2.3" d="M49.1 13.9C56.2 22.7 57.1 34.3 51.2 44.9"/>
    <path stroke-width="2.5" d="M20.2 52.2c-1.7-6.2 2-14.7 8.8-22.4 6.8-7.7 14.7-13 21.1-14.7"/>
    <path stroke-width="2.5" d="M12.4 38.1c7.6-2.1 17.6-8.8 25.6-18 2.7-3.1 5.1-6.3 6.9-9.3"/>
    <path stroke-width="2.5" d="M24.2 55.1c7.5-3.8 16.1-10.9 23.2-19.3 4.4-5.2 7.8-10.5 9.8-15.1"/>
    <path stroke-width="2" d="M9.8 30.6c3.3-4.9 7.5-9.5 12.6-13.7"/>
    <path stroke-width="2" d="M36.2 55.2c6.3-3.9 11.9-9 16.6-14.9"/>
  </g>
  <g fill="#314767">
    <circle cx="20.2" cy="18.4" r="2.4"/>
    <circle cx="28.9" cy="29.8" r="3.1"/>
    <circle cx="39" cy="20.1" r="2.6"/>
    <circle cx="47.4" cy="35.8" r="2.9"/>
    <circle cx="38.7" cy="45.8" r="2.5"/>
    <circle cx="24.2" cy="55.1" r="1.9"/>
    <circle cx="51.2" cy="44.9" r="2.4"/>
    <circle cx="12.4" cy="38.1" r="2.4"/>
  </g>
</svg>
